<svg width="36" height="36" viewBox="0 0 36 36" fill="none" xmlns="http://www.w3.org/2000/svg">
<g clip-path="url(#clip0_54_384)">
<path d="M9 28.5C9 30.15 10.35 31.5 12 31.5H24C25.65 31.5 27 30.15 27 28.5V10.5H9V28.5ZM13.755 18.885C13.17 18.3 13.17 17.355 13.755 16.77C14.34 16.185 15.285 16.185 15.87 16.77L18 18.885L20.115 16.77C20.7 16.185 21.645 16.185 22.23 16.77C22.815 17.355 22.815 18.3 22.23 18.885L20.115 21L22.23 23.115C22.815 23.7 22.815 24.645 22.23 25.23C21.645 25.815 20.7 25.815 20.115 25.23L18 23.115L15.885 25.23C15.3 25.815 14.355 25.815 13.77 25.23C13.185 24.645 13.185 23.7 13.77 23.115L15.885 21L13.755 18.885ZM27 6H23.25L22.185 4.935C21.915 4.665 21.525 4.5 21.135 4.5H14.865C14.475 4.5 14.085 4.665 13.815 4.935L12.75 6H9C8.175 6 7.5 6.675 7.5 7.5C7.5 8.325 8.175 9 9 9H27C27.825 9 28.5 8.325 28.5 7.5C28.5 6.675 27.825 6 27 6Z" fill="#EFF1F3"/>
</g>
<defs>
<clipPath id="clip0_54_384">
<rect width="36" height="36" fill="white"/>
</clipPath>
</defs>
</svg>
