<svg width="21" height="21" viewBox="0 0 21 21" fill="none" xmlns="http://www.w3.org/2000/svg">
<path d="M9.1925 6.17L4.6825 1.66C6.2625 0.61 8.1525 0 10.1925 0C15.7125 0 20.1925 4.48 20.1925 10C20.1925 12.04 19.5825 13.93 18.5325 15.51L17.0725 14.05C17.7825 12.87 18.1925 11.48 18.1925 10C18.1925 6.65 16.1225 3.78 13.1925 2.59V3C13.1925 4.1 12.2925 5 11.1925 5H9.1925V6.17ZM18.6825 19.9C18.2925 20.29 17.6625 20.29 17.2725 19.9L15.7125 18.34C13.6425 19.71 11.0325 20.34 8.2625 19.82C4.3125 19.07 1.1325 15.9 0.3825 11.94C-0.1375 9.17 0.4825 6.56 1.8625 4.49L0.2925 2.93C-0.0975 2.54 -0.0975 1.91 0.2925 1.52C0.6825 1.13 1.3125 1.13 1.7025 1.52L18.6725 18.49C19.0725 18.88 19.0725 19.51 18.6825 19.9ZM9.1925 16C8.0925 16 7.1925 15.1 7.1925 14V13L2.4025 8.21C2.2725 8.79 2.1925 9.38 2.1925 10C2.1925 14.08 5.2425 17.44 9.1925 17.93V16Z" fill="#E03616"/>
</svg>
