<svg width="25" height="25" viewBox="0 0 25 25" fill="none"
    xmlns="http://www.w3.org/2000/svg">
    <g clip-path="url(#clip0_29_616)">
        <path d="M12.0667 2.01282C6.51132 2.01282 2.0127 6.52151 2.0127 12.0769C2.0127 17.6322 6.51132 22.1409 12.0667 22.1409C17.6321 22.1409 22.1408 17.6322 22.1408 12.0769C22.1408 6.52151 17.6321 2.01282 12.0667 2.01282ZM12.0767 20.1281C7.62843 20.1281 4.0255 16.5252 4.0255 12.0769C4.0255 7.62856 7.62843 4.02563 12.0767 4.02563C16.5251 4.02563 20.128 7.62856 20.128 12.0769C20.128 16.5252 16.5251 20.1281 12.0767 20.1281ZM11.8553 7.04484H11.7949C11.3924 7.04484 11.0703 7.36689 11.0703 7.76945V12.5197C11.0703 12.8719 11.2515 13.204 11.5635 13.3852L15.7401 15.8911C16.0822 16.0924 16.5251 15.9918 16.7263 15.6496C16.9377 15.3074 16.827 14.8545 16.4747 14.6533L12.5799 12.3385V7.76945C12.5799 7.36689 12.2579 7.04484 11.8553 7.04484Z"/>
    </g>
    <defs>
        <clipPath id="clip0_29_616">
            <rect width="24.1537" height="24.1537" fill="white"/>
        </clipPath>
    </defs>
</svg>
